<svg width="24" height="24" viewBox="0 0 24 24" fill="none" xmlns="http://www.w3.org/2000/svg">
<path d="M5 3C4.46957 3 3.96086 3.21071 3.58579 3.58579C3.21071 3.96086 3 4.46957 3 5V19C3 19.5304 3.21071 20.0391 3.58579 20.4142C3.96086 20.7893 4.46957 21 5 21H14.09C14.03 20.67 14 20.34 14 20C14 19.32 14.12 18.64 14.35 18H5L8.5 13.5L11 16.5L14.5 12L16.73 14.97C17.7 14.34 18.84 14 20 14C20.34 14 20.67 14.03 21 14.09V5C21 4.46957 20.7893 3.96086 20.4142 3.58579C20.0391 3.21071 19.5304 3 19 3H5ZM19 16V19H16V21H19V24H21V21H24V19H21V16H19Z" fill="black"/>
</svg>
